<svg xmlns="http://www.w3.org/2000/svg" width="256" height="256" viewBox="0 0 256 256" role="img" aria-label="CreditCostGuide logo">
  <defs>
    <linearGradient id="g" x1="0%" y1="0%" x2="100%" y2="100%">
      <stop offset="0%" stop-color="#7cb4ff"/>
      <stop offset="50%" stop-color="#2f78ff"/>
      <stop offset="100%" stop-color="#122d91"/>
    </linearGradient>
  </defs>
  <rect width="256" height="256" rx="56" fill="#081a33"/>
  <path d="M56 154c14-38 46-64 86-64 18 0 35 4 52 14l-16 26c-11-6-23-9-35-9-27 0-49 13-61 35 10 16 29 28 51 28 18 0 34-7 47-20l22 22c-18 19-43 30-71 30-33 0-61-14-75-38-4-7-4-16 0-24Z" fill="url(#g)"/>
  <circle cx="176" cy="86" r="18" fill="#dbe8ff"/>
</svg>
